<svg id="Layer_1" data-name="Layer 1" xmlns="http://www.w3.org/2000/svg" viewBox="0 0 363 107"><title>ip-echo-black</title><path d="M41.18,39.6H22.48V34H48.07V74.42H41.18ZM38.43,20.24a5.2,5.2,0,0,1,5.49-5.32,5.19,5.19,0,0,1,5.48,5.32,5.14,5.14,0,0,1-5.48,5.32A5.15,5.15,0,0,1,38.43,20.24Z"/><path d="M72.59,34h5.65l.58,5.15h.25C82.81,35.61,88.12,33,93,33c10.88,0,16.7,8.06,16.7,20.61,0,13.71-8.64,21.77-18.36,21.77-3.74,0-8.4-1.91-12.05-5.24h-.17l.33,7.65V91.46H72.59Zm30.08,19.61c0-8.89-3.33-14.79-11.39-14.79-3.57,0-7.73,1.82-11.8,6V65A16.85,16.85,0,0,0,90.2,69.6C97.35,69.6,102.67,63.62,102.67,53.65Z"/><path d="M150.22,54.15C150.22,41,160,33,170.83,33c11.63,0,18.45,7.56,18.45,18.94a29,29,0,0,1-.33,4.16H154.79V50.82h30.09l-1.75,1.91c0-9.55-4.74-14.29-12.13-14.29s-14,5.65-14,15.71c0,10.47,6.81,15.78,15.79,15.78a21.93,21.93,0,0,0,12.29-3.82l2.5,4.49A27.67,27.67,0,0,1,172,75.42C159.86,75.42,150.22,67.61,150.22,54.15Z"/><path d="M201.08,54.31c0-13.54,10.3-21.27,22.52-21.27a20.55,20.55,0,0,1,14.71,5.9l-3.41,4.4c-3.33-2.82-6.82-4.57-11.05-4.57-9.31,0-15.71,6.23-15.71,15.54s6.32,15.38,15.54,15.38c5,0,9.14-2.25,12.47-5.07l3.07,4.48a24,24,0,0,1-16,6.32C210.55,75.42,201.08,67.69,201.08,54.31Z"/><path d="M252,15.25h6.9V31.38l-.41,9.55h.25c4.07-4.48,8.8-7.89,15-7.89,9.55,0,14,5.65,14,16.29V74.42h-6.9V50.24c0-7.65-2.66-11.22-9.22-11.22-4.82,0-8.06,2.41-12.72,7.23V74.42H252Z"/><path d="M299.13,54.31c0-13.54,9.31-21.27,19.94-21.27S339,40.77,339,54.31c0,13.38-9.31,21.11-19.95,21.11S299.13,67.69,299.13,54.31Zm32.82,0c0-9.31-5.15-15.54-12.88-15.54S306.19,45,306.19,54.31s5.15,15.38,12.88,15.38S332,63.54,332,54.31Z"/></svg>